# xmcd
#
# Track frame offsets: 
#        150
#        14160
#        25695
#        38750
#        52917
#        67137
#        82587
#        94132
#        106347
#        119682
#        132762
#        147797
#        159860
#        171867
#
# Disc length: 2488 seconds
#
# Revision: 0
# Processed by: cddbd v1.5.2PL0 Copyright (c) Steve Scherf et al.
# Submitted via: ExactAudioCopy v0.99pb5
#
DISCID=b009b60e
DTITLE=Various Artist - Sweethearts Of The Rodeo
DYEAR=1988
DGENRE=
TTITLE0=Midnight Girl/Sunset Down
TTITLE1=Hey Doll Baby
TTITLE2=Chains Of Gold
TTITLE3=Everywhere I Turn
TTITLE4=Uphill All The Way
TTITLE5=He Doesn't Tell Me Anything
TTITLE6=Don't Wake Me UP
TTITLE7=Satisfy You
TTITLE8=Blue To The Bone
TTITLE9=Don't Look Down
TTITLE10=One Time, One night
TTITLE11=You Never Talk Sweet
TTITLE12=I Feel Fine
TTITLE13=Until I Stop Dancing
EXTD=
EXTT0=
EXTT1=
EXTT2=
EXTT3=
EXTT4=
EXTT5=
EXTT6=
EXTT7=
EXTT8=
EXTT9=
EXTT10=
EXTT11=
EXTT12=
EXTT13=
PLAYORDER=
